<?xml version="1.0" encoding="UTF-8"?>
<svg width="179px" height="177px" viewBox="0 0 179 177" version="1.1" xmlns="http://www.w3.org/2000/svg" xmlns:xlink="http://www.w3.org/1999/xlink">
    <!-- Generator: Sketch 43.1 (39012) - http://www.bohemiancoding.com/sketch -->
    <title>horizontal</title>
    <desc>Created with Sketch.</desc>
    <defs></defs>
    <g id="Page-1" stroke="none" stroke-width="1" fill="none" fill-rule="evenodd">
        <g id="logo-Josh---Outlined-mark" transform="translate(-187.000000, -391.000000)">
            <g id="horizontal" transform="translate(0.000000, 114.000000)"></g>
            <g id="vert" transform="translate(87.000000, 396.000000)" fill="#266DD3">
                <path d="M190.264,0.22 L190.531,0.221 L190.798,0.223 L191.065,0.226 L191.331,0.23 L191.598,0.235 L191.864,0.24 L192.13,0.247 L192.395,0.254 L192.661,0.262 L192.926,0.271 L193.191,0.28 L193.456,0.291 L193.721,0.302 L193.985,0.314 L194.249,0.327 L194.513,0.341 L194.777,0.356 L195.041,0.371 L195.304,0.388 L195.567,0.405 L196.093,0.441 L196.355,0.461 L196.618,0.481 L196.88,0.503 L197.141,0.525 L197.403,0.547 L197.664,0.571 L197.925,0.596 L198.186,0.621 L198.447,0.647 L198.707,0.674 L198.967,0.702 L199.227,0.73 L199.487,0.759 L199.746,0.789 L200.005,0.82 L200.264,0.852 L200.523,0.885 L200.781,0.918 L201.04,0.952 L201.298,0.987 L201.555,1.023 L201.813,1.059 L202.07,1.096 L202.327,1.134 L202.583,1.173 L202.84,1.213 L203.096,1.253 L203.352,1.294 L203.607,1.336 L203.863,1.379 L204.118,1.423 L204.373,1.467 L204.627,1.512 L204.882,1.558 L205.136,1.605 L205.389,1.652 L205.643,1.7 L205.896,1.749 L206.149,1.799 L206.402,1.85 L206.654,1.901 L206.906,1.953 L207.158,2.006 L207.409,2.059 L207.661,2.114 L207.912,2.169 L208.162,2.225 L208.413,2.281 L208.663,2.339 L208.913,2.397 L209.162,2.456 L209.412,2.516 L209.661,2.576 L209.909,2.637 L210.158,2.699 L210.406,2.762 L210.653,2.825 L210.901,2.889 L211.148,2.954 L211.395,3.02 L211.642,3.086 L211.888,3.153 L212.134,3.221 L212.38,3.29 L212.625,3.359 L212.87,3.429 L213.115,3.5 L213.359,3.571 L214.091,3.79 L214.334,3.865 L214.577,3.94 L214.819,4.016 L215.303,4.17 L215.545,4.248 L215.786,4.327 L216.027,4.406 L216.268,4.487 L216.508,4.568 L216.748,4.649 L216.987,4.732 L217.227,4.815 L217.466,4.899 L217.704,4.983 L217.943,5.068 L218.18,5.154 L218.418,5.241 L218.655,5.328 L218.892,5.416 L219.129,5.505 L219.601,5.685 L219.837,5.776 L220.072,5.867 L220.307,5.96 L220.541,6.053 L220.775,6.146 L221.243,6.336 L221.476,6.431 L221.708,6.528 L221.941,6.625 L222.173,6.723 L222.404,6.821 L222.636,6.92 L222.867,7.02 L223.097,7.121 L223.328,7.222 L223.557,7.324 L223.787,7.426 L224.016,7.53 L224.245,7.633 L224.701,7.843 L224.929,7.949 L225.383,8.163 L225.609,8.271 L225.836,8.38 L226.061,8.489 L226.287,8.599 L226.512,8.709 L226.736,8.821 L227.184,9.045 L227.408,9.158 L227.631,9.272 L227.853,9.387 L228.076,9.502 L228.298,9.618 L228.519,9.734 L228.74,9.851 L228.961,9.969 L229.401,10.207 L229.62,10.327 L229.84,10.447 L230.058,10.568 L230.277,10.69 L230.494,10.812 L230.712,10.935 L230.929,11.058 L231.146,11.183 L231.362,11.307 L231.578,11.433 L231.793,11.559 L232.223,11.813 L232.437,11.941 L232.651,12.07 L232.864,12.199 L233.077,12.329 L233.289,12.459 L233.502,12.59 L233.713,12.722 L234.135,12.988 L234.556,13.255 L234.974,13.526 L235.391,13.798 L235.806,14.073 L236.219,14.351 L236.631,14.631 L237.041,14.913 L237.449,15.198 L237.855,15.485 L238.26,15.775 L238.662,16.067 L239.063,16.361 L239.462,16.657 L239.859,16.956 L240.254,17.258 L240.648,17.561 L241.039,17.867 L241.429,18.175 L241.817,18.486 L242.202,18.798 L242.586,19.113 L242.968,19.431 L243.348,19.75 L243.727,20.072 L244.103,20.396 L244.477,20.722 L244.849,21.05 L245.219,21.381 L245.588,21.713 L245.954,22.048 L246.318,22.385 L246.68,22.724 L247.04,23.066 L247.398,23.409 L247.754,23.755 L248.108,24.103 L248.46,24.452 L248.81,24.804 L249.158,25.158 L249.503,25.514 L249.847,25.872 L250.188,26.232 L250.527,26.595 L250.864,26.959 L251.199,27.325 L251.532,27.693 L251.862,28.063 L252.191,28.436 L252.517,28.81 L252.841,29.186 L253.163,29.564 L253.482,29.944 L253.799,30.326 L254.114,30.71 L254.427,31.096 L254.737,31.484 L255.045,31.873 L255.351,32.265 L255.655,32.658 L255.956,33.053 L256.255,33.451 L256.552,33.85 L256.846,34.25 L257.138,34.653 L257.427,35.057 L257.714,35.464 L257.999,35.872 L258.282,36.282 L258.562,36.693 L258.839,37.106 L259.114,37.522 L259.387,37.938 L259.657,38.357 L259.925,38.777 L260.058,38.988 L260.19,39.199 L260.322,39.411 L260.453,39.623 L260.584,39.836 L260.714,40.048 L260.843,40.262 L261.227,40.904 L261.354,41.119 L261.48,41.335 L261.73,41.767 L261.978,42.201 L262.101,42.418 L262.345,42.854 L262.466,43.073 L262.586,43.292 L262.706,43.512 L262.825,43.731 L262.943,43.952 L263.061,44.172 L263.178,44.394 L263.295,44.615 L263.411,44.837 L263.526,45.059 L263.754,45.505 L263.867,45.728 L263.98,45.952 L264.092,46.176 L264.314,46.626 L264.424,46.851 L264.642,47.303 L264.749,47.53 L264.857,47.757 L265.069,48.211 L265.175,48.439 L265.383,48.897 L265.589,49.355 L265.691,49.585 L265.792,49.815 L265.992,50.277 L266.091,50.508 L266.19,50.74 L266.288,50.972 L266.385,51.204 L266.577,51.67 L266.672,51.903 L266.86,52.371 L266.953,52.606 L267.137,53.076 L267.228,53.312 L267.318,53.547 L267.407,53.784 L267.496,54.02 L267.584,54.257 L267.671,54.494 L267.758,54.732 L267.844,54.97 L267.929,55.208 L268.014,55.447 L268.098,55.686 L268.181,55.925 L268.345,56.405 L268.426,56.645 L268.506,56.886 L268.586,57.126 L268.664,57.368 L268.742,57.609 L268.82,57.851 L268.896,58.093 L269.048,58.579 L269.196,59.065 L269.269,59.309 L269.341,59.553 L269.413,59.798 L269.483,60.043 L269.554,60.288 L269.623,60.533 L269.759,61.025 L269.826,61.271 L269.893,61.518 L269.958,61.764 L270.023,62.012 L270.088,62.259 L270.214,62.755 L270.275,63.003 L270.337,63.252 L270.457,63.75 L270.516,64 L270.574,64.25 L270.688,64.75 L270.744,65.001 L270.799,65.252 L270.853,65.503 L270.907,65.755 L270.959,66.006 L271.012,66.259 L271.063,66.511 L271.163,67.017 L271.212,67.27 L271.26,67.523 L271.308,67.777 L271.4,68.285 L271.49,68.795 L271.576,69.305 L271.618,69.561 L271.7,70.073 L271.739,70.329 L271.778,70.586 L271.816,70.843 L271.89,71.357 L271.926,71.615 L271.961,71.873 L271.995,72.131 L272.028,72.39 L272.092,72.907 L272.123,73.166 L272.183,73.685 L272.239,74.205 L272.266,74.466 L272.292,74.726 L272.317,74.987 L272.341,75.248 L272.365,75.51 L272.388,75.771 L272.41,76.033 L272.452,76.557 L272.49,77.082 L272.508,77.345 L272.525,77.608 L272.557,78.135 L272.585,78.663 L272.598,78.927 L272.622,79.456 L272.642,79.986 L272.651,80.252 L272.659,80.517 L272.666,80.783 L272.678,81.315 L272.686,81.848 L272.689,82.115 L272.691,82.381 L272.693,82.916 L272.691,83.45 L272.689,83.717 L272.686,83.984 L272.678,84.517 L272.666,85.049 L272.659,85.315 L272.651,85.58 L272.642,85.846 L272.622,86.375 L272.598,86.905 L272.585,87.169 L272.557,87.697 L272.525,88.224 L272.508,88.487 L272.49,88.75 L272.452,89.275 L272.41,89.799 L272.388,90.061 L272.365,90.322 L272.341,90.584 L272.317,90.845 L272.292,91.106 L272.266,91.366 L272.239,91.627 L272.183,92.147 L272.123,92.666 L272.092,92.925 L272.028,93.442 L271.995,93.701 L271.961,93.959 L271.926,94.217 L271.89,94.475 L271.816,94.989 L271.778,95.246 L271.739,95.503 L271.7,95.759 L271.618,96.271 L271.576,96.527 L271.49,97.037 L271.4,97.547 L271.308,98.055 L271.26,98.309 L271.212,98.562 L271.163,98.815 L271.063,99.321 L271.012,99.573 L270.959,99.825 L270.907,100.077 L270.853,100.329 L270.799,100.58 L270.744,100.831 L270.688,101.082 L270.574,101.582 L270.516,101.832 L270.457,102.082 L270.337,102.58 L270.275,102.829 L270.214,103.077 L270.088,103.573 L270.023,103.82 L269.958,104.068 L269.893,104.314 L269.826,104.561 L269.759,104.807 L269.623,105.299 L269.554,105.544 L269.483,105.789 L269.413,106.034 L269.341,106.279 L269.269,106.523 L269.196,106.766 L269.122,107.01 L269.048,107.253 L268.896,107.739 L268.82,107.981 L268.742,108.223 L268.586,108.705 L268.426,109.187 L268.345,109.427 L268.181,109.907 L268.098,110.146 L268.014,110.385 L267.929,110.624 L267.844,110.862 L267.758,111.1 L267.671,111.337 L267.584,111.575 L267.496,111.812 L267.407,112.048 L267.318,112.285 L267.228,112.52 L267.137,112.756 L266.953,113.226 L266.86,113.461 L266.766,113.695 L266.672,113.928 L266.577,114.162 L266.385,114.628 L266.288,114.86 L266.19,115.092 L266.091,115.324 L265.992,115.555 L265.792,116.017 L265.691,116.247 L265.589,116.477 L265.383,116.935 L265.175,117.393 L265.069,117.621 L264.857,118.075 L264.749,118.302 L264.642,118.529 L264.424,118.981 L264.314,119.206 L264.092,119.656 L263.98,119.88 L263.867,120.104 L263.754,120.327 L263.526,120.773 L263.411,120.995 L263.295,121.217 L263.178,121.438 L263.061,121.66 L262.825,122.1 L262.706,122.32 L262.586,122.54 L262.466,122.759 L262.345,122.978 L262.101,123.414 L261.978,123.631 L261.73,124.065 L261.48,124.497 L261.354,124.713 L261.227,124.928 L260.843,125.57 L260.714,125.783 L260.584,125.996 L260.453,126.209 L260.322,126.421 L260.19,126.633 L260.058,126.844 L259.925,127.055 L259.657,127.475 L259.387,127.893 L259.114,128.31 L258.839,128.725 L258.562,129.139 L258.282,129.55 L257.999,129.96 L257.714,130.368 L257.427,130.775 L257.138,131.179 L256.846,131.582 L256.552,131.982 L256.255,132.381 L255.956,132.778 L255.655,133.174 L255.351,133.567 L255.045,133.959 L254.737,134.348 L254.427,134.736 L254.114,135.122 L253.799,135.506 L253.482,135.888 L253.163,136.268 L252.841,136.646 L252.517,137.022 L252.191,137.396 L251.862,137.769 L251.532,138.139 L251.199,138.507 L250.864,138.873 L250.527,139.237 L250.188,139.6 L249.847,139.96 L249.503,140.318 L249.158,140.674 L248.81,141.028 L248.46,141.38 L248.108,141.729 L247.754,142.077 L247.398,142.423 L247.04,142.766 L246.68,143.107 L246.318,143.447 L245.954,143.784 L245.588,144.119 L245.219,144.451 L244.849,144.782 L244.477,145.11 L244.103,145.436 L243.727,145.76 L243.348,146.082 L242.968,146.401 L242.586,146.719 L242.202,147.034 L241.817,147.346 L241.429,147.657 L241.039,147.965 L240.648,148.271 L240.254,148.574 L239.859,148.876 L239.462,149.174 L239.063,149.471 L238.662,149.765 L238.26,150.057 L237.855,150.347 L237.449,150.634 L237.041,150.919 L236.631,151.201 L236.219,151.481 L235.806,151.759 L235.391,152.034 L234.974,152.306 L234.556,152.577 L234.135,152.844 L233.713,153.11 L233.502,153.241 L233.289,153.373 L233.077,153.503 L232.864,153.633 L232.651,153.762 L232.437,153.891 L232.223,154.019 L232.008,154.146 L231.793,154.273 L231.578,154.399 L231.146,154.649 L230.929,154.774 L230.712,154.897 L230.494,155.02 L230.277,155.142 L230.058,155.264 L229.84,155.385 L229.62,155.505 L229.401,155.625 L228.961,155.863 L228.74,155.98 L228.519,156.098 L228.298,156.214 L228.076,156.33 L227.853,156.445 L227.631,156.56 L227.408,156.674 L227.184,156.787 L226.512,157.123 L226.287,157.233 L226.061,157.343 L225.836,157.452 L225.609,157.561 L225.383,157.669 L224.929,157.883 L224.701,157.989 L224.473,158.094 L224.245,158.198 L223.787,158.406 L223.557,158.508 L223.328,158.61 L223.097,158.711 L222.867,158.812 L222.636,158.912 L222.404,159.011 L222.173,159.109 L221.941,159.207 L221.708,159.304 L221.476,159.401 L221.243,159.496 L221.009,159.591 L220.775,159.686 L220.541,159.779 L220.307,159.872 L220.072,159.965 L219.837,160.056 L219.601,160.147 L219.129,160.327 L218.892,160.415 L218.655,160.503 L218.418,160.591 L218.18,160.678 L217.943,160.763 L217.704,160.849 L217.466,160.933 L217.227,161.017 L216.987,161.1 L216.748,161.183 L216.508,161.264 L216.268,161.345 L216.027,161.425 L215.786,161.505 L215.545,161.584 L215.303,161.662 L214.819,161.816 L214.577,161.892 L214.334,161.967 L214.091,162.041 L213.847,162.115 L213.603,162.188 L213.359,162.26 L213.115,162.332 L212.87,162.403 L212.625,162.473 L212.38,162.542 L212.134,162.611 L211.888,162.679 L211.642,162.746 L211.395,162.812 L211.148,162.878 L210.901,162.943 L210.653,163.007 L210.406,163.07 L210.158,163.133 L209.909,163.195 L209.661,163.256 L209.412,163.316 L209.162,163.376 L208.913,163.435 L208.663,163.493 L208.413,163.551 L208.162,163.607 L207.912,163.663 L207.661,163.718 L207.409,163.772 L207.158,163.826 L206.906,163.879 L206.654,163.931 L206.402,163.982 L206.149,164.033 L205.896,164.082 L205.643,164.131 L205.389,164.18 L205.136,164.227 L204.882,164.274 L204.627,164.32 L204.373,164.365 L204.118,164.409 L203.863,164.453 L203.607,164.495 L203.352,164.537 L203.096,164.579 L202.84,164.619 L202.583,164.659 L202.327,164.698 L202.07,164.736 L201.813,164.773 L201.555,164.809 L201.298,164.845 L201.04,164.88 L200.781,164.914 L200.523,164.947 L200.264,164.98 L200.005,165.012 L199.746,165.042 L199.487,165.073 L199.227,165.102 L198.967,165.13 L198.707,165.158 L198.447,165.185 L198.186,165.211 L197.925,165.236 L197.664,165.261 L197.403,165.284 L197.141,165.307 L196.88,165.329 L196.618,165.351 L196.355,165.371 L196.093,165.391 L195.83,165.409 L195.567,165.427 L195.304,165.444 L195.041,165.461 L194.513,165.491 L194.249,165.505 L193.985,165.518 L193.721,165.53 L193.456,165.541 L193.191,165.552 L192.926,165.561 L192.661,165.57 L192.395,165.578 L192.13,165.585 L191.864,165.592 L191.598,165.597 L191.331,165.602 L191.065,165.606 L190.798,165.608 L190.531,165.611 L190.264,165.612 L189.729,165.612 L189.462,165.611 L189.195,165.608 L188.928,165.606 L188.662,165.602 L188.396,165.597 L188.129,165.592 L187.864,165.585 L187.598,165.578 L187.332,165.57 L187.067,165.561 L186.802,165.552 L186.537,165.541 L186.272,165.53 L186.008,165.518 L185.744,165.505 L185.48,165.491 L185.216,165.476 L184.952,165.461 L184.689,165.444 L184.426,165.427 L184.163,165.409 L183.9,165.391 L183.638,165.371 L183.376,165.351 L183.114,165.329 L182.852,165.307 L182.59,165.284 L182.329,165.261 L182.068,165.236 L181.807,165.211 L181.546,165.185 L181.286,165.158 L181.026,165.13 L180.766,165.102 L180.506,165.073 L180.247,165.042 L179.988,165.012 L179.729,164.98 L179.47,164.947 L179.212,164.914 L178.954,164.88 L178.696,164.845 L178.438,164.809 L178.181,164.773 L177.923,164.736 L177.666,164.698 L177.41,164.659 L177.153,164.619 L176.897,164.579 L176.641,164.537 L176.386,164.495 L176.13,164.453 L175.875,164.409 L175.62,164.365 L175.366,164.32 L175.112,164.274 L174.858,164.227 L174.604,164.18 L174.35,164.131 L174.097,164.082 L173.844,164.033 L173.592,163.982 L173.339,163.931 L173.087,163.879 L172.835,163.826 L172.584,163.772 L172.332,163.718 L172.081,163.663 L171.831,163.607 L171.58,163.551 L171.33,163.493 L171.08,163.435 L170.831,163.376 L170.333,163.256 L170.084,163.195 L169.836,163.133 L169.587,163.07 L169.34,163.007 L169.092,162.943 L168.845,162.878 L168.598,162.812 L168.352,162.746 L168.105,162.679 L167.859,162.611 L167.614,162.542 L167.368,162.473 L167.123,162.403 L166.878,162.332 L166.634,162.26 L166.39,162.188 L166.146,162.115 L165.903,162.041 L165.659,161.967 L165.417,161.892 L165.174,161.816 L164.69,161.662 L164.448,161.584 L164.207,161.505 L163.966,161.425 L163.726,161.345 L163.485,161.264 L163.245,161.183 L163.006,161.1 L162.766,161.017 L162.528,160.933 L162.289,160.849 L162.051,160.763 L161.813,160.678 L161.575,160.591 L161.338,160.503 L160.864,160.327 L160.392,160.147 L160.157,160.056 L159.921,159.965 L159.687,159.872 L159.452,159.779 L159.218,159.686 L158.984,159.591 L158.751,159.496 L158.517,159.401 L158.285,159.304 L158.052,159.207 L157.82,159.109 L157.589,159.011 L157.357,158.912 L157.126,158.812 L156.666,158.61 L156.206,158.406 L155.748,158.198 L155.52,158.094 L155.292,157.989 L155.064,157.883 L154.837,157.776 L154.61,157.669 L154.384,157.561 L154.158,157.452 L153.932,157.343 L153.707,157.233 L153.482,157.123 L153.257,157.011 L152.809,156.787 L152.585,156.674 L152.362,156.56 L152.14,156.445 L151.917,156.33 L151.696,156.214 L151.474,156.098 L151.253,155.98 L151.032,155.863 L150.812,155.744 L150.592,155.625 L150.373,155.505 L150.154,155.385 L149.935,155.264 L149.499,155.02 L149.281,154.897 L149.064,154.774 L148.847,154.649 L148.415,154.399 L148.2,154.273 L147.985,154.146 L147.77,154.019 L147.556,153.891 L147.342,153.762 L147.129,153.633 L146.916,153.503 L146.704,153.373 L146.492,153.241 L146.28,153.11 L145.858,152.844 L145.438,152.577 L145.019,152.306 L144.602,152.034 L144.187,151.759 L143.774,151.481 L143.362,151.201 L142.952,150.919 L142.544,150.634 L142.138,150.347 L141.734,150.057 L141.331,149.765 L140.93,149.471 L140.531,149.174 L140.134,148.876 L139.739,148.574 L139.345,148.271 L138.954,147.965 L138.564,147.657 L138.176,147.346 L137.791,147.034 L137.407,146.719 L137.025,146.401 L136.645,146.082 L136.267,145.76 L135.89,145.436 L135.516,145.11 L135.144,144.782 L134.774,144.451 L134.406,144.119 L134.039,143.784 L133.675,143.447 L133.313,143.107 L132.953,142.766 L132.595,142.423 L132.239,142.077 L131.885,141.729 L131.533,141.38 L131.183,141.028 L130.835,140.674 L130.49,140.318 L130.146,139.96 L129.805,139.6 L129.466,139.237 L129.129,138.873 L128.794,138.507 L128.461,138.139 L128.131,137.769 L127.802,137.396 L127.476,137.022 L127.152,136.646 L126.831,136.268 L126.511,135.888 L126.194,135.506 L125.879,135.122 L125.566,134.736 L125.256,134.348 L124.948,133.959 L124.642,133.567 L124.338,133.174 L124.037,132.778 L123.738,132.381 L123.441,131.982 L123.147,131.582 L122.855,131.179 L122.566,130.775 L122.279,130.368 L121.994,129.96 L121.712,129.55 L121.432,129.139 L121.154,128.725 L120.879,128.31 L120.606,127.893 L120.336,127.475 L120.068,127.055 L119.935,126.844 L119.803,126.633 L119.671,126.421 L119.54,126.209 L119.409,125.996 L119.28,125.783 L119.15,125.57 L118.766,124.928 L118.64,124.713 L118.388,124.281 L118.263,124.065 L118.015,123.631 L117.892,123.414 L117.77,123.196 L117.649,122.978 L117.407,122.54 L117.287,122.32 L117.168,122.1 L116.932,121.66 L116.815,121.438 L116.698,121.217 L116.583,120.995 L116.467,120.773 L116.239,120.327 L116.126,120.104 L116.013,119.88 L115.901,119.656 L115.679,119.206 L115.569,118.981 L115.46,118.755 L115.352,118.529 L115.136,118.075 L114.924,117.621 L114.819,117.393 L114.714,117.164 L114.61,116.935 L114.404,116.477 L114.302,116.247 L114.201,116.017 L114.001,115.555 L113.902,115.324 L113.803,115.092 L113.705,114.86 L113.608,114.628 L113.416,114.162 L113.321,113.928 L113.227,113.695 L113.133,113.461 L113.04,113.226 L112.856,112.756 L112.766,112.52 L112.675,112.285 L112.586,112.048 L112.497,111.812 L112.409,111.575 L112.322,111.337 L112.235,111.1 L112.149,110.862 L112.064,110.624 L111.979,110.385 L111.895,110.146 L111.812,109.907 L111.648,109.427 L111.567,109.187 L111.487,108.946 L111.329,108.464 L111.251,108.223 L111.173,107.981 L111.097,107.739 L111.021,107.496 L110.871,107.01 L110.797,106.766 L110.724,106.523 L110.652,106.279 L110.51,105.789 L110.37,105.299 L110.234,104.807 L110.167,104.561 L110.1,104.314 L110.035,104.068 L109.97,103.82 L109.906,103.573 L109.842,103.325 L109.718,102.829 L109.596,102.331 L109.536,102.082 L109.478,101.832 L109.419,101.582 L109.305,101.082 L109.25,100.831 L109.194,100.58 L109.14,100.329 L109.086,100.077 L108.93,99.321 L108.83,98.815 L108.781,98.562 L108.733,98.309 L108.685,98.055 L108.593,97.547 L108.503,97.037 L108.417,96.527 L108.375,96.271 L108.293,95.759 L108.254,95.503 L108.215,95.246 L108.177,94.989 L108.103,94.475 L108.067,94.217 L108.033,93.959 L107.998,93.701 L107.965,93.442 L107.901,92.925 L107.87,92.666 L107.84,92.406 L107.782,91.887 L107.754,91.627 L107.728,91.366 L107.701,91.106 L107.676,90.845 L107.628,90.322 L107.605,90.061 L107.583,89.799 L107.562,89.537 L107.542,89.275 L107.522,89.012 L107.503,88.75 L107.485,88.487 L107.468,88.224 L107.436,87.697 L107.408,87.169 L107.395,86.905 L107.371,86.375 L107.351,85.846 L107.342,85.58 L107.334,85.315 L107.327,85.049 L107.315,84.517 L107.307,83.984 L107.304,83.717 L107.302,83.45 L107.3,82.916 L107.302,82.381 L107.304,82.115 L107.307,81.848 L107.315,81.315 L107.327,80.783 L107.334,80.517 L107.342,80.252 L107.351,79.986 L107.371,79.456 L107.395,78.927 L107.408,78.663 L107.436,78.135 L107.468,77.608 L107.485,77.345 L107.503,77.082 L107.522,76.82 L107.542,76.557 L107.562,76.295 L107.583,76.033 L107.605,75.771 L107.628,75.51 L107.676,74.987 L107.701,74.726 L107.728,74.466 L107.754,74.205 L107.782,73.945 L107.84,73.426 L107.87,73.166 L107.901,72.907 L107.965,72.39 L107.998,72.131 L108.033,71.873 L108.067,71.615 L108.103,71.357 L108.177,70.843 L108.215,70.586 L108.254,70.329 L108.293,70.073 L108.375,69.561 L108.417,69.305 L108.503,68.795 L108.593,68.285 L108.685,67.777 L108.733,67.523 L108.781,67.27 L108.83,67.017 L108.93,66.511 L108.982,66.259 L109.034,66.006 L109.086,65.755 L109.14,65.503 L109.194,65.252 L109.25,65.001 L109.305,64.75 L109.419,64.25 L109.478,64 L109.536,63.75 L109.596,63.501 L109.718,63.003 L109.842,62.507 L109.906,62.259 L109.97,62.012 L110.035,61.764 L110.1,61.518 L110.167,61.271 L110.234,61.025 L110.37,60.533 L110.51,60.043 L110.652,59.553 L110.724,59.309 L110.797,59.065 L110.871,58.822 L111.021,58.336 L111.097,58.093 L111.173,57.851 L111.251,57.609 L111.329,57.368 L111.408,57.126 L111.487,56.886 L111.567,56.645 L111.648,56.405 L111.812,55.925 L111.895,55.686 L111.979,55.447 L112.064,55.208 L112.149,54.97 L112.235,54.732 L112.322,54.494 L112.409,54.257 L112.497,54.02 L112.586,53.784 L112.675,53.547 L112.766,53.312 L112.856,53.076 L113.04,52.606 L113.133,52.371 L113.321,51.903 L113.416,51.67 L113.608,51.204 L113.705,50.972 L113.803,50.74 L113.902,50.508 L114.001,50.277 L114.201,49.815 L114.302,49.585 L114.404,49.355 L114.61,48.897 L114.714,48.668 L114.819,48.439 L114.924,48.211 L115.136,47.757 L115.352,47.303 L115.46,47.077 L115.569,46.851 L115.679,46.626 L115.901,46.176 L116.013,45.952 L116.126,45.728 L116.239,45.505 L116.467,45.059 L116.583,44.837 L116.698,44.615 L116.815,44.394 L116.932,44.172 L117.05,43.952 L117.168,43.731 L117.287,43.512 L117.407,43.292 L117.649,42.854 L117.77,42.636 L117.892,42.418 L118.015,42.201 L118.263,41.767 L118.388,41.551 L118.64,41.119 L118.766,40.904 L119.15,40.262 L119.28,40.048 L119.409,39.836 L119.54,39.623 L119.671,39.411 L119.803,39.199 L119.935,38.988 L120.068,38.777 L120.336,38.357 L120.606,37.938 L120.879,37.522 L121.154,37.106 L121.432,36.693 L121.712,36.282 L121.994,35.872 L122.279,35.464 L122.566,35.057 L122.855,34.653 L123.147,34.25 L123.441,33.85 L123.738,33.451 L124.037,33.053 L124.338,32.658 L124.642,32.265 L124.948,31.873 L125.256,31.484 L125.566,31.096 L125.879,30.71 L126.194,30.326 L126.511,29.944 L126.831,29.564 L127.152,29.186 L127.476,28.81 L127.802,28.436 L128.131,28.063 L128.461,27.693 L128.794,27.325 L129.129,26.959 L129.466,26.595 L129.805,26.232 L130.146,25.872 L130.49,25.514 L130.835,25.158 L131.183,24.804 L131.533,24.452 L131.885,24.103 L132.239,23.755 L132.595,23.409 L132.953,23.066 L133.313,22.724 L133.675,22.385 L134.039,22.048 L134.406,21.713 L134.774,21.381 L135.144,21.05 L135.516,20.722 L135.89,20.396 L136.267,20.072 L136.645,19.75 L137.025,19.431 L137.407,19.113 L137.791,18.798 L138.176,18.486 L138.564,18.175 L138.954,17.867 L139.345,17.561 L139.739,17.258 L140.134,16.956 L140.531,16.657 L140.93,16.361 L141.331,16.067 L141.734,15.775 L142.138,15.485 L142.544,15.198 L142.952,14.913 L143.362,14.631 L143.774,14.351 L144.187,14.073 L144.602,13.798 L145.019,13.526 L145.438,13.255 L145.858,12.988 L146.28,12.722 L146.492,12.59 L146.704,12.459 L146.916,12.329 L147.129,12.199 L147.342,12.07 L147.556,11.941 L147.77,11.813 L148.2,11.559 L148.415,11.433 L148.631,11.307 L148.847,11.183 L149.064,11.058 L149.281,10.935 L149.499,10.812 L149.935,10.568 L150.154,10.447 L150.373,10.327 L150.592,10.207 L151.032,9.969 L151.253,9.851 L151.474,9.734 L151.696,9.618 L151.917,9.502 L152.14,9.387 L152.362,9.272 L152.585,9.158 L152.809,9.045 L153.257,8.821 L153.482,8.709 L153.707,8.599 L153.932,8.489 L154.384,8.271 L154.61,8.163 L155.064,7.949 L155.292,7.843 L155.748,7.633 L155.977,7.53 L156.206,7.426 L156.436,7.324 L156.666,7.222 L156.896,7.121 L157.126,7.02 L157.357,6.92 L157.589,6.821 L157.82,6.723 L158.052,6.625 L158.285,6.528 L158.517,6.431 L158.751,6.336 L158.984,6.241 L159.218,6.146 L159.452,6.053 L159.687,5.96 L159.921,5.867 L160.157,5.776 L160.392,5.685 L160.628,5.595 L160.864,5.505 L161.101,5.416 L161.338,5.328 L161.575,5.241 L161.813,5.154 L162.051,5.068 L162.289,4.983 L162.528,4.899 L162.766,4.815 L163.006,4.732 L163.245,4.649 L163.485,4.568 L163.726,4.487 L163.966,4.406 L164.207,4.327 L164.448,4.248 L164.69,4.17 L165.174,4.016 L165.417,3.94 L165.659,3.865 L165.903,3.79 L166.146,3.717 L166.634,3.571 L166.878,3.5 L167.123,3.429 L167.368,3.359 L167.614,3.29 L167.859,3.221 L168.105,3.153 L168.352,3.086 L168.598,3.02 L168.845,2.954 L169.092,2.889 L169.34,2.825 L169.587,2.762 L169.836,2.699 L170.084,2.637 L170.333,2.576 L170.831,2.456 L171.08,2.397 L171.33,2.339 L171.58,2.281 L171.831,2.225 L172.081,2.169 L172.332,2.114 L172.584,2.059 L172.835,2.006 L173.087,1.953 L173.339,1.901 L173.592,1.85 L173.844,1.799 L174.097,1.749 L174.35,1.7 L174.604,1.652 L174.858,1.605 L175.112,1.558 L175.366,1.512 L175.62,1.467 L175.875,1.423 L176.13,1.379 L176.386,1.336 L176.641,1.294 L176.897,1.253 L177.153,1.213 L177.41,1.173 L177.666,1.134 L177.923,1.096 L178.181,1.059 L178.438,1.023 L178.696,0.987 L178.954,0.952 L179.212,0.918 L179.47,0.885 L179.729,0.852 L179.988,0.82 L180.247,0.789 L180.506,0.759 L180.766,0.73 L181.026,0.702 L181.286,0.674 L181.546,0.647 L181.807,0.621 L182.068,0.596 L182.329,0.571 L182.59,0.547 L182.852,0.525 L183.376,0.481 L183.638,0.461 L183.9,0.441 L184.426,0.405 L184.689,0.388 L184.952,0.371 L185.216,0.356 L185.48,0.341 L185.744,0.327 L186.008,0.314 L186.272,0.302 L186.537,0.291 L186.802,0.28 L187.067,0.271 L187.332,0.262 L187.598,0.254 L187.864,0.247 L188.129,0.24 L188.396,0.235 L188.662,0.23 L188.928,0.226 L189.195,0.223 L189.462,0.221 L189.729,0.22 L190.264,0.22 Z M189.752,7.22 L189.506,7.221 L189.262,7.223 L189.017,7.226 L188.773,7.229 L188.529,7.234 L188.285,7.239 L188.042,7.244 L187.798,7.251 L187.554,7.258 L187.311,7.266 L187.068,7.275 L186.826,7.285 L186.584,7.295 L186.341,7.306 L186.098,7.318 L185.857,7.331 L185.615,7.344 L185.374,7.359 L185.132,7.374 L184.891,7.389 L184.651,7.406 L184.41,7.423 L184.169,7.441 L183.929,7.459 L183.691,7.479 L183.449,7.499 L183.209,7.52 L182.972,7.542 L182.732,7.564 L182.494,7.587 L182.255,7.611 L182.015,7.636 L181.778,7.661 L181.541,7.687 L181.303,7.714 L181.065,7.742 L180.827,7.77 L180.59,7.799 L180.354,7.829 L180.117,7.859 L179.881,7.89 L179.647,7.922 L179.41,7.955 L179.174,7.988 L178.937,8.023 L178.703,8.057 L178.469,8.093 L178.233,8.129 L178,8.166 L177.765,8.204 L177.529,8.242 L177.299,8.281 L177.065,8.321 L176.831,8.362 L176.599,8.403 L176.365,8.445 L176.131,8.488 L175.9,8.531 L175.669,8.575 L175.439,8.62 L175.207,8.665 L174.974,8.712 L174.744,8.759 L174.515,8.806 L174.283,8.855 L174.051,8.904 L173.822,8.953 L173.594,9.003 L173.367,9.054 L173.136,9.107 L172.905,9.159 L172.675,9.213 L172.448,9.267 L172.224,9.32 L171.995,9.376 L171.766,9.432 L171.54,9.488 L171.311,9.546 L171.086,9.604 L170.858,9.663 L170.633,9.722 L170.409,9.782 L170.181,9.843 L169.958,9.904 L169.73,9.967 L169.507,10.029 L169.284,10.092 L169.058,10.157 L168.835,10.221 L168.61,10.287 L168.387,10.353 L168.167,10.419 L167.941,10.487 L167.72,10.555 L167.496,10.624 L167.275,10.693 L167.056,10.763 L166.831,10.834 L166.612,10.905 L166.393,10.977 L166.17,11.051 L165.947,11.125 L165.728,11.198 L165.515,11.271 L165.294,11.347 L165.072,11.424 L164.855,11.501 L164.638,11.577 L164.418,11.656 L164.201,11.734 L163.986,11.813 L163.765,11.894 L163.55,11.974 L163.331,12.056 L163.116,12.138 L162.688,12.302 L162.475,12.385 L162.256,12.471 L162.039,12.557 L161.826,12.642 L161.613,12.728 L161.402,12.814 L161.185,12.903 L160.973,12.991 L160.763,13.079 L160.547,13.17 L160.336,13.259 L160.126,13.349 L159.917,13.44 L159.702,13.534 L159.493,13.626 L159.284,13.718 L159.07,13.814 L158.862,13.907 L158.655,14.002 L158.442,14.099 L158.234,14.195 L158.028,14.291 L157.821,14.388 L157.615,14.485 L157.404,14.586 L156.994,14.784 L156.784,14.886 L156.579,14.987 L156.375,15.088 L156.165,15.193 L155.962,15.295 L155.759,15.398 L155.556,15.501 L155.354,15.605 L155.146,15.713 L154.944,15.818 L154.743,15.924 L154.542,16.031 L154.336,16.141 L154.135,16.249 L153.936,16.357 L153.729,16.469 L153.536,16.575 L153.338,16.685 L153.134,16.799 L152.935,16.91 L152.738,17.022 L152.534,17.138 L152.14,17.364 L151.944,17.479 L151.748,17.593 L151.546,17.712 L151.351,17.828 L151.156,17.945 L150.962,18.061 L150.768,18.179 L150.568,18.301 L150.374,18.42 L150.181,18.539 L149.988,18.659 L149.797,18.779 L149.605,18.901 L149.215,19.149 L148.834,19.395 L148.451,19.645 L148.073,19.896 L147.694,20.151 L147.315,20.408 L146.942,20.665 L146.566,20.927 L146.196,21.189 L145.824,21.455 L145.457,21.721 L145.092,21.989 L144.725,22.262 L144.359,22.538 L143.998,22.812 L143.64,23.089 L143.279,23.371 L142.923,23.653 L142.569,23.936 L142.214,24.224 L141.862,24.512 L141.514,24.802 L141.163,25.097 L140.817,25.391 L140.473,25.687 L140.131,25.985 L139.791,26.285 L139.452,26.587 L139.116,26.892 L138.777,27.201 L138.444,27.51 L138.116,27.817 L137.783,28.133 L137.455,28.447 L137.129,28.764 L136.804,29.082 L136.486,29.399 L136.162,29.725 L135.842,30.05 L135.529,30.373 L135.211,30.705 L134.897,31.035 L134.59,31.364 L134.281,31.698 L133.973,32.034 L133.671,32.368 L133.368,32.708 L133.066,33.05 L132.767,33.394 L132.469,33.74 L132.177,34.083 L131.883,34.433 L131.591,34.784 L131.305,35.133 L131.017,35.488 L130.731,35.845 L130.451,36.199 L130.172,36.555 L129.893,36.918 L129.615,37.282 L129.344,37.643 L129.073,38.006 L128.803,38.376 L128.533,38.747 L128.269,39.116 L128.007,39.486 L127.748,39.857 L127.488,40.236 L127.229,40.616 L126.976,40.993 L126.725,41.371 L126.476,41.752 L126.23,42.134 L125.978,42.529 L125.859,42.717 L125.743,42.902 L125.622,43.098 L125.5,43.294 L125.379,43.491 L125.259,43.688 L125.146,43.875 L124.908,44.271 L124.791,44.47 L124.673,44.669 L124.562,44.858 L124.446,45.058 L124.33,45.258 L124.216,45.459 L124.101,45.66 L123.993,45.851 L123.88,46.053 L123.766,46.255 L123.661,46.447 L123.549,46.65 L123.438,46.854 L123.328,47.058 L123.217,47.263 L123.114,47.456 L123.006,47.661 L122.897,47.867 L122.796,48.062 L122.689,48.268 L122.371,48.889 L122.272,49.086 L122.169,49.294 L122.065,49.503 L121.968,49.7 L121.764,50.12 L121.669,50.318 L121.469,50.74 L121.37,50.952 L121.276,51.151 L121.179,51.364 L121.081,51.576 L120.99,51.777 L120.894,51.99 L120.799,52.204 L120.703,52.418 L120.614,52.621 L120.521,52.835 L120.433,53.038 L120.249,53.47 L120.163,53.674 L120.068,53.903 L119.982,54.107 L119.898,54.313 L119.81,54.53 L119.722,54.748 L119.634,54.967 L119.552,55.173 L119.466,55.392 L119.301,55.819 L119.221,56.027 L119.138,56.247 L119.055,56.468 L118.973,56.69 L118.891,56.911 L118.815,57.121 L118.739,57.33 L118.502,57.999 L118.429,58.21 L118.357,58.421 L118.204,58.871 L118.134,59.083 L118.055,59.321 L117.985,59.534 L117.916,59.747 L117.844,59.973 L117.776,60.187 L117.706,60.414 L117.635,60.642 L117.565,60.869 L117.499,61.084 L117.436,61.3 L117.368,61.528 L117.301,61.758 L117.234,61.987 L117.172,62.203 L117.111,62.42 L117.047,62.651 L116.983,62.881 L116.923,63.099 L116.865,63.317 L116.743,63.781 L116.683,64.013 L116.626,64.232 L116.571,64.452 L116.455,64.918 L116.401,65.139 L116.291,65.607 L116.239,65.829 L116.188,66.05 L116.135,66.286 L116.085,66.508 L116.034,66.744 L115.982,66.98 L115.888,67.426 L115.839,67.664 L115.791,67.901 L115.746,68.125 L115.702,68.35 L115.656,68.588 L115.61,68.827 L115.568,69.052 L115.527,69.278 L115.484,69.517 L115.441,69.757 L115.401,69.983 L115.363,70.21 L115.283,70.692 L115.246,70.919 L115.21,71.147 L115.136,71.631 L115.102,71.859 L115.069,72.088 L115.037,72.318 L114.971,72.804 L114.94,73.034 L114.878,73.522 L114.851,73.739 L114.823,73.984 L114.793,74.229 L114.769,74.447 L114.743,74.692 L114.716,74.938 L114.691,75.184 L114.667,75.417 L114.645,75.65 L114.621,75.897 L114.6,76.13 L114.56,76.597 L114.541,76.845 L114.521,77.093 L114.469,77.812 L114.455,78.047 L114.439,78.297 L114.425,78.533 L114.412,78.769 L114.399,79.019 L114.387,79.269 L114.365,79.743 L114.356,79.981 L114.338,80.483 L114.331,80.721 L114.319,81.198 L114.314,81.437 L114.31,81.69 L114.307,81.943 L114.304,82.182 L114.302,82.422 L114.3,82.916 L114.302,83.41 L114.304,83.65 L114.307,83.889 L114.31,84.142 L114.314,84.395 L114.319,84.634 L114.331,85.11 L114.338,85.349 L114.356,85.851 L114.365,86.089 L114.387,86.563 L114.399,86.813 L114.412,87.063 L114.425,87.299 L114.439,87.535 L114.455,87.785 L114.469,88.02 L114.521,88.738 L114.541,88.987 L114.56,89.234 L114.6,89.702 L114.621,89.935 L114.645,90.182 L114.667,90.415 L114.691,90.648 L114.716,90.894 L114.743,91.14 L114.769,91.385 L114.793,91.603 L114.823,91.848 L114.851,92.093 L114.878,92.31 L114.94,92.798 L114.971,93.028 L115.037,93.514 L115.069,93.744 L115.102,93.973 L115.136,94.201 L115.21,94.685 L115.246,94.913 L115.283,95.14 L115.363,95.622 L115.401,95.849 L115.441,96.075 L115.484,96.315 L115.527,96.554 L115.568,96.78 L115.61,97.005 L115.656,97.244 L115.702,97.482 L115.746,97.707 L115.791,97.931 L115.839,98.168 L115.888,98.405 L115.935,98.629 L115.982,98.852 L116.034,99.088 L116.085,99.324 L116.135,99.546 L116.188,99.782 L116.239,100.003 L116.291,100.225 L116.401,100.693 L116.455,100.913 L116.513,101.147 L116.571,101.38 L116.626,101.6 L116.683,101.819 L116.743,102.051 L116.865,102.515 L116.923,102.733 L116.983,102.951 L117.047,103.181 L117.111,103.412 L117.172,103.628 L117.234,103.845 L117.368,104.303 L117.436,104.532 L117.499,104.747 L117.635,105.19 L117.706,105.418 L117.776,105.645 L117.844,105.858 L117.916,106.085 L117.985,106.298 L118.055,106.511 L118.134,106.749 L118.204,106.961 L118.276,107.173 L118.357,107.411 L118.429,107.622 L118.502,107.833 L118.739,108.502 L118.815,108.711 L118.891,108.921 L118.973,109.142 L119.055,109.364 L119.138,109.584 L119.221,109.805 L119.301,110.013 L119.466,110.44 L119.552,110.659 L119.634,110.865 L119.722,111.084 L119.81,111.302 L119.898,111.519 L119.982,111.724 L120.068,111.929 L120.163,112.158 L120.249,112.362 L120.433,112.794 L120.521,112.996 L120.614,113.211 L120.703,113.414 L120.798,113.628 L120.894,113.841 L120.99,114.055 L121.081,114.256 L121.179,114.468 L121.276,114.68 L121.37,114.88 L121.469,115.092 L121.569,115.303 L121.669,115.513 L121.764,115.712 L121.866,115.922 L121.968,116.131 L122.065,116.329 L122.169,116.538 L122.272,116.746 L122.371,116.942 L122.477,117.15 L122.689,117.564 L122.796,117.771 L122.897,117.965 L123.006,118.171 L123.114,118.376 L123.217,118.57 L123.328,118.774 L123.438,118.978 L123.549,119.182 L123.66,119.385 L123.766,119.576 L123.88,119.779 L123.993,119.981 L124.101,120.172 L124.215,120.373 L124.331,120.574 L124.446,120.774 L124.562,120.974 L124.673,121.163 L124.791,121.362 L124.908,121.561 L125.146,121.957 L125.259,122.144 L125.379,122.341 L125.5,122.538 L125.622,122.734 L125.743,122.93 L125.859,123.115 L125.978,123.303 L126.23,123.698 L126.476,124.08 L126.725,124.46 L126.976,124.839 L127.229,125.216 L127.488,125.596 L127.748,125.975 L128.007,126.346 L128.269,126.716 L128.533,127.085 L128.803,127.456 L129.073,127.826 L129.343,128.189 L129.615,128.55 L129.893,128.914 L130.172,129.277 L130.451,129.633 L130.731,129.987 L131.017,130.344 L131.304,130.699 L131.591,131.048 L131.883,131.399 L132.177,131.749 L132.469,132.092 L132.767,132.438 L133.066,132.782 L133.368,133.124 L133.671,133.464 L133.973,133.798 L134.28,134.134 L134.59,134.468 L134.897,134.797 L135.211,135.127 L135.529,135.459 L135.842,135.782 L136.162,136.107 L136.486,136.433 L136.804,136.75 L137.129,137.068 L137.455,137.385 L137.783,137.699 L138.116,138.015 L138.443,138.322 L138.777,138.631 L139.116,138.94 L139.453,139.245 L139.791,139.547 L140.131,139.847 L140.473,140.145 L140.817,140.441 L141.163,140.735 L141.514,141.03 L141.862,141.32 L142.214,141.608 L142.569,141.896 L142.923,142.179 L143.279,142.461 L143.64,142.742 L143.998,143.019 L144.359,143.294 L144.725,143.57 L145.092,143.843 L145.457,144.111 L145.824,144.377 L146.196,144.643 L146.566,144.905 L146.942,145.167 L147.315,145.424 L147.694,145.681 L148.073,145.936 L148.451,146.187 L148.834,146.437 L149.215,146.683 L149.604,146.931 L149.988,147.173 L150.181,147.293 L150.374,147.412 L150.568,147.531 L150.768,147.653 L151.156,147.887 L151.351,148.004 L151.546,148.12 L151.748,148.239 L152.14,148.467 L152.337,148.581 L152.535,148.694 L152.738,148.81 L152.935,148.922 L153.134,149.033 L153.338,149.147 L153.536,149.257 L153.729,149.363 L153.936,149.475 L154.135,149.583 L154.336,149.691 L154.542,149.801 L154.743,149.908 L154.944,150.014 L155.146,150.119 L155.354,150.227 L155.556,150.331 L155.758,150.434 L155.962,150.537 L156.166,150.639 L156.375,150.744 L156.579,150.845 L156.783,150.945 L156.994,151.048 L157.199,151.147 L157.404,151.246 L157.615,151.347 L157.821,151.444 L158.028,151.541 L158.234,151.637 L158.442,151.733 L158.654,151.83 L158.862,151.925 L159.071,152.018 L159.284,152.114 L159.493,152.206 L159.702,152.298 L159.916,152.392 L160.126,152.482 L160.337,152.573 L160.547,152.662 L160.763,152.753 L160.973,152.841 L161.185,152.929 L161.401,153.018 L161.614,153.104 L161.826,153.19 L162.039,153.275 L162.257,153.361 L162.474,153.447 L162.688,153.53 L163.116,153.694 L163.33,153.775 L163.55,153.858 L163.765,153.938 L163.986,154.019 L164.201,154.098 L164.418,154.176 L164.638,154.255 L164.855,154.331 L165.071,154.407 L165.294,154.485 L165.515,154.561 L165.728,154.634 L165.947,154.707 L166.17,154.781 L166.393,154.855 L166.612,154.927 L166.832,154.998 L167.055,155.069 L167.275,155.139 L167.496,155.208 L167.72,155.277 L167.941,155.345 L168.167,155.413 L168.387,155.479 L168.61,155.545 L168.835,155.611 L169.058,155.675 L169.284,155.74 L169.507,155.803 L169.73,155.865 L169.957,155.928 L170.181,155.989 L170.409,156.05 L170.633,156.11 L170.858,156.169 L171.086,156.228 L171.311,156.286 L171.54,156.344 L171.766,156.4 L171.995,156.456 L172.224,156.512 L172.448,156.565 L172.675,156.619 L172.906,156.673 L173.136,156.726 L173.366,156.778 L173.594,156.828 L173.823,156.879 L174.051,156.928 L174.283,156.977 L174.514,157.026 L174.744,157.073 L174.974,157.12 L175.207,157.167 L175.439,157.212 L175.669,157.257 L175.9,157.301 L176.131,157.344 L176.365,157.387 L176.599,157.429 L176.831,157.47 L177.066,157.511 L177.3,157.551 L177.529,157.59 L177.765,157.628 L178,157.666 L178.234,157.703 L178.469,157.739 L178.702,157.775 L178.937,157.809 L179.174,157.844 L179.41,157.877 L179.647,157.91 L179.881,157.942 L180.117,157.973 L180.354,158.003 L180.59,158.033 L180.826,158.062 L181.065,158.09 L181.303,158.118 L181.541,158.145 L181.778,158.171 L182.016,158.196 L182.255,158.221 L182.494,158.245 L182.732,158.268 L182.971,158.29 L183.209,158.312 L183.449,158.333 L183.691,158.353 L183.929,158.372 L184.169,158.391 L184.41,158.409 L184.651,158.426 L184.891,158.443 L185.132,158.458 L185.374,158.473 L185.616,158.488 L185.857,158.501 L186.098,158.514 L186.341,158.525 L186.583,158.537 L186.826,158.547 L187.068,158.557 L187.311,158.565 L187.554,158.574 L187.798,158.581 L188.041,158.587 L188.285,158.593 L188.529,158.598 L188.773,158.603 L189.017,158.606 L189.262,158.609 L189.506,158.611 L189.752,158.612 L190.242,158.612 L190.486,158.611 L190.732,158.609 L190.976,158.606 L191.219,158.603 L191.464,158.598 L191.709,158.593 L191.952,158.587 L192.196,158.581 L192.439,158.574 L192.682,158.565 L192.925,158.557 L193.167,158.547 L193.41,158.537 L193.653,158.525 L193.895,158.514 L194.136,158.501 L194.378,158.488 L194.62,158.473 L194.861,158.458 L195.101,158.443 L195.343,158.426 L195.583,158.409 L195.823,158.391 L196.063,158.372 L196.304,158.353 L196.543,158.333 L196.783,158.312 L197.023,158.29 L197.262,158.268 L197.499,158.245 L197.739,158.221 L197.978,158.196 L198.215,158.171 L198.452,158.145 L198.69,158.118 L198.929,158.09 L199.165,158.062 L199.403,158.033 L199.641,158.003 L199.875,157.973 L200.111,157.942 L200.349,157.91 L200.583,157.877 L200.819,157.844 L201.054,157.81 L201.29,157.775 L201.527,157.739 L201.76,157.703 L201.994,157.666 L202.226,157.628 L202.461,157.59 L202.695,157.551 L202.93,157.511 L203.163,157.47 L203.394,157.429 L203.628,157.387 L203.86,157.344 L204.09,157.301 L204.323,157.257 L204.557,157.212 L204.787,157.167 L205.019,157.12 L205.252,157.073 L205.479,157.026 L205.707,156.978 L205.941,156.928 L206.171,156.879 L206.399,156.828 L206.63,156.777 L206.857,156.726 L207.088,156.673 L207.315,156.62 L207.542,156.566 L207.771,156.511 L208.001,156.455 L208.228,156.4 L208.453,156.344 L208.682,156.286 L208.907,156.228 L209.132,156.17 L209.36,156.11 L209.588,156.049 L209.812,155.989 L210.036,155.928 L210.263,155.865 L210.486,155.803 L210.709,155.74 L210.936,155.675 L211.158,155.611 L211.38,155.546 L211.605,155.479 L211.831,155.412 L212.052,155.345 L212.273,155.277 L212.498,155.208 L212.719,155.139 L212.938,155.069 L213.162,154.998 L213.382,154.927 L213.6,154.855 L213.823,154.781 L214.042,154.709 L214.26,154.635 L214.704,154.483 L214.922,154.407 L215.139,154.331 L215.355,154.255 L215.571,154.177 L215.792,154.098 L216.012,154.017 L216.228,153.938 L216.443,153.858 L216.658,153.777 L216.877,153.694 L217.091,153.612 L217.305,153.53 L217.524,153.445 L217.955,153.275 L218.168,153.19 L218.38,153.104 L218.592,153.018 L218.803,152.931 L219.019,152.841 L219.231,152.753 L219.446,152.662 L219.657,152.573 L219.867,152.482 L220.082,152.39 L220.291,152.298 L220.501,152.206 L220.709,152.114 L220.923,152.018 L221.131,151.925 L221.339,151.83 L221.546,151.735 L221.758,151.637 L221.966,151.541 L222.171,151.444 L222.384,151.344 L222.589,151.246 L222.795,151.147 L222.999,151.048 L223.21,150.945 L223.415,150.845 L223.618,150.744 L223.828,150.639 L224.032,150.537 L224.229,150.437 L224.437,150.331 L224.645,150.224 L225.049,150.014 L225.25,149.908 L225.451,149.801 L225.652,149.694 L225.858,149.583 L226.058,149.475 L226.257,149.366 L226.462,149.254 L226.662,149.143 L226.86,149.033 L227.058,148.922 L227.256,148.81 L227.459,148.694 L227.656,148.581 L228.05,148.353 L228.245,148.239 L228.447,148.12 L228.643,148.004 L228.837,147.887 L229.032,147.77 L229.226,147.653 L229.426,147.531 L229.812,147.293 L230.005,147.173 L230.197,147.052 L230.386,146.933 L230.774,146.686 L231.162,146.435 L231.542,146.187 L231.92,145.936 L232.3,145.681 L232.678,145.424 L233.051,145.167 L233.423,144.907 L233.8,144.641 L234.169,144.377 L234.536,144.111 L234.905,143.84 L235.269,143.57 L235.63,143.297 L235.994,143.019 L236.357,142.74 L236.715,142.461 L237.07,142.179 L237.424,141.896 L237.776,141.61 L238.13,141.32 L238.483,141.027 L238.827,140.738 L239.172,140.444 L239.519,140.145 L239.861,139.847 L240.205,139.544 L240.545,139.241 L240.877,138.94 L241.212,138.634 L241.549,138.322 L241.881,138.012 L242.21,137.699 L242.539,137.385 L242.861,137.072 L243.188,136.75 L243.511,136.429 L243.832,136.107 L244.151,135.782 L244.464,135.459 L244.779,135.131 L245.092,134.801 L245.403,134.468 L245.712,134.134 L246.019,133.798 L246.325,133.46 L246.629,133.12 L246.927,132.782 L247.227,132.438 L247.525,132.092 L247.817,131.749 L248.111,131.399 L248.399,131.052 L248.688,130.699 L248.976,130.344 L249.258,129.992 L249.542,129.633 L249.824,129.272 L250.1,128.914 L250.374,128.555 L250.649,128.189 L250.922,127.821 L251.191,127.456 L251.46,127.085 L251.724,126.716 L251.985,126.346 L252.248,125.97 L252.506,125.596 L252.761,125.221 L253.013,124.844 L253.268,124.46 L253.52,124.075 L253.767,123.693 L254.009,123.314 L254.127,123.125 L254.256,122.919 L254.378,122.724 L254.493,122.538 L254.735,122.144 L254.848,121.957 L254.966,121.759 L255.085,121.561 L255.321,121.163 L255.431,120.974 L255.663,120.574 L255.778,120.373 L255.887,120.183 L256,119.981 L256.114,119.779 L256.226,119.576 L256.339,119.374 L256.444,119.182 L256.666,118.774 L256.776,118.57 L256.879,118.376 L256.988,118.171 L257.096,117.965 L257.198,117.771 L257.304,117.564 L257.411,117.357 L257.517,117.15 L257.721,116.746 L257.819,116.549 L257.922,116.341 L258.03,116.12 L258.127,115.922 L258.223,115.724 L258.329,115.502 L258.43,115.291 L258.525,115.092 L258.618,114.892 L258.912,114.256 L259.009,114.043 L259.1,113.841 L259.19,113.64 L259.284,113.426 L259.384,113.199 L259.473,112.996 L259.56,112.794 L259.744,112.362 L259.835,112.146 L259.921,111.941 L260.01,111.724 L260.1,111.507 L260.184,111.302 L260.271,111.084 L260.359,110.865 L260.441,110.659 L260.522,110.452 L260.607,110.233 L260.777,109.793 L260.855,109.584 L260.938,109.364 L261.02,109.142 L261.098,108.933 L261.178,108.711 L261.259,108.489 L261.334,108.279 L261.413,108.056 L261.487,107.845 L261.564,107.622 L261.641,107.398 L261.713,107.186 L261.789,106.961 L261.864,106.736 L261.934,106.524 L262.008,106.298 L262.15,105.858 L262.217,105.645 L262.288,105.418 L262.359,105.19 L262.562,104.519 L262.626,104.303 L262.693,104.074 L262.756,103.858 L262.817,103.642 L262.885,103.398 L262.947,103.181 L263.006,102.964 L263.073,102.72 L263.132,102.502 L263.19,102.283 L263.251,102.051 L263.307,101.832 L263.367,101.6 L263.426,101.367 L263.481,101.147 L263.535,100.927 L263.647,100.459 L263.699,100.238 L263.754,100.003 L263.859,99.546 L263.96,99.088 L264.008,98.865 L264.055,98.642 L264.107,98.392 L264.154,98.168 L264.199,97.944 L264.247,97.707 L264.293,97.469 L264.337,97.244 L264.38,97.019 L264.468,96.541 L264.512,96.301 L264.55,96.089 L264.591,95.849 L264.633,95.608 L264.671,95.381 L264.708,95.154 L264.746,94.913 L264.785,94.671 L264.818,94.457 L264.89,93.973 L264.958,93.501 L264.99,93.271 L265.023,93.028 L265.053,92.798 L265.084,92.554 L265.114,92.323 L265.142,92.093 L265.171,91.848 L265.199,91.603 L265.226,91.371 L265.251,91.14 L265.277,90.894 L265.301,90.661 L265.326,90.415 L265.349,90.182 L265.37,89.949 L265.414,89.455 L265.434,89.221 L265.453,88.987 L265.472,88.738 L265.49,88.504 L265.54,87.771 L265.555,87.535 L265.581,87.063 L265.607,86.563 L265.617,86.34 L265.627,86.089 L265.638,85.838 L265.655,85.362 L265.668,84.872 L265.679,84.381 L265.687,83.889 L265.69,83.65 L265.692,83.41 L265.693,83.17 L265.693,82.662 L265.692,82.422 L265.69,82.182 L265.687,81.943 L265.683,81.69 L265.679,81.451 L265.674,81.212 L265.668,80.96 L265.661,80.708 L265.655,80.47 L265.646,80.232 L265.638,79.994 L265.627,79.743 L265.617,79.492 L265.607,79.269 L265.581,78.769 L265.555,78.297 L265.54,78.061 L265.49,77.328 L265.453,76.845 L265.434,76.611 L265.414,76.377 L265.37,75.883 L265.349,75.65 L265.326,75.417 L265.301,75.171 L265.277,74.938 L265.251,74.692 L265.226,74.461 L265.199,74.229 L265.171,73.984 L265.142,73.739 L265.114,73.508 L265.084,73.278 L265.053,73.034 L265.023,72.804 L264.99,72.561 L264.958,72.331 L264.89,71.859 L264.818,71.375 L264.785,71.161 L264.746,70.919 L264.708,70.678 L264.671,70.451 L264.633,70.224 L264.591,69.983 L264.55,69.743 L264.512,69.531 L264.468,69.291 L264.38,68.813 L264.337,68.588 L264.293,68.363 L264.247,68.125 L264.199,67.888 L264.154,67.664 L264.107,67.44 L264.055,67.19 L264.008,66.967 L263.96,66.744 L263.859,66.286 L263.7,65.594 L263.647,65.373 L263.535,64.905 L263.481,64.685 L263.426,64.465 L263.367,64.232 L263.307,64 L263.251,63.781 L263.19,63.549 L263.132,63.33 L263.073,63.112 L263.006,62.868 L262.947,62.651 L262.885,62.433 L262.817,62.19 L262.756,61.974 L262.693,61.758 L262.626,61.528 L262.562,61.313 L262.493,61.084 L262.424,60.856 L262.359,60.642 L262.288,60.414 L262.15,59.973 L262.081,59.76 L262.008,59.534 L261.934,59.308 L261.864,59.096 L261.789,58.871 L261.713,58.646 L261.641,58.434 L261.564,58.21 L261.487,57.987 L261.413,57.776 L261.334,57.553 L261.259,57.343 L261.178,57.121 L261.098,56.899 L261.02,56.69 L260.938,56.468 L260.855,56.247 L260.777,56.039 L260.607,55.599 L260.522,55.38 L260.441,55.173 L260.359,54.967 L260.271,54.748 L260.184,54.53 L260.1,54.325 L260.01,54.107 L259.921,53.89 L259.744,53.47 L259.56,53.038 L259.473,52.835 L259.284,52.406 L259.19,52.192 L259.1,51.99 L259.009,51.789 L258.912,51.576 L258.618,50.94 L258.525,50.74 L258.43,50.541 L258.329,50.33 L258.223,50.108 L258.127,49.91 L258.03,49.712 L257.922,49.491 L257.819,49.283 L257.721,49.086 L257.622,48.889 L257.517,48.682 L257.411,48.475 L257.304,48.268 L257.198,48.062 L257.096,47.867 L256.988,47.661 L256.879,47.456 L256.776,47.263 L256.666,47.058 L256.444,46.65 L256.339,46.458 L256.226,46.255 L256.114,46.053 L256,45.851 L255.887,45.649 L255.778,45.459 L255.663,45.258 L255.431,44.858 L255.321,44.669 L255.085,44.271 L254.966,44.073 L254.848,43.875 L254.734,43.688 L254.614,43.491 L254.493,43.294 L254.256,42.913 L254.127,42.707 L254.009,42.518 L253.767,42.139 L253.52,41.757 L253.268,41.371 L253.013,40.988 L252.761,40.611 L252.505,40.236 L252.248,39.862 L251.985,39.486 L251.724,39.116 L251.46,38.747 L251.191,38.376 L250.922,38.011 L250.649,37.643 L250.374,37.277 L250.1,36.918 L249.824,36.56 L249.542,36.199 L249.258,35.84 L248.976,35.488 L248.688,35.133 L248.399,34.78 L248.111,34.433 L247.817,34.083 L247.525,33.74 L247.227,33.394 L246.927,33.05 L246.629,32.712 L246.325,32.372 L246.019,32.034 L245.712,31.698 L245.403,31.364 L245.092,31.031 L244.779,30.701 L244.464,30.373 L244.151,30.05 L243.832,29.725 L243.511,29.403 L243.188,29.082 L242.861,28.76 L242.539,28.447 L242.211,28.133 L241.881,27.82 L241.549,27.51 L241.212,27.198 L240.878,26.892 L240.545,26.591 L240.205,26.288 L239.861,25.985 L239.519,25.687 L239.172,25.387 L238.827,25.094 L238.483,24.805 L238.13,24.512 L237.776,24.221 L237.424,23.936 L237.07,23.653 L236.715,23.371 L236.357,23.092 L235.994,22.812 L235.631,22.535 L235.269,22.262 L234.905,21.992 L234.536,21.721 L234.169,21.455 L233.8,21.191 L233.423,20.925 L233.051,20.665 L232.678,20.408 L232.3,20.151 L231.92,19.896 L231.542,19.645 L231.162,19.397 L230.774,19.146 L230.386,18.899 L230.197,18.779 L230.005,18.659 L229.812,18.539 L229.426,18.301 L229.226,18.179 L229.032,18.061 L228.837,17.945 L228.643,17.828 L228.447,17.712 L228.245,17.593 L228.05,17.479 L227.853,17.364 L227.459,17.138 L227.256,17.022 L227.058,16.91 L226.86,16.799 L226.662,16.689 L226.462,16.578 L226.257,16.466 L226.058,16.357 L225.858,16.249 L225.652,16.138 L225.451,16.031 L225.251,15.924 L225.049,15.818 L224.847,15.713 L224.646,15.609 L224.437,15.501 L224.229,15.395 L224.032,15.295 L223.828,15.193 L223.619,15.088 L223.415,14.987 L223.21,14.886 L222.999,14.784 L222.795,14.685 L222.589,14.586 L222.384,14.488 L222.171,14.388 L221.966,14.291 L221.759,14.195 L221.546,14.097 L221.339,14.002 L221.131,13.907 L220.923,13.814 L220.71,13.718 L220.501,13.626 L220.291,13.534 L220.082,13.442 L219.866,13.349 L219.657,13.259 L219.446,13.17 L219.23,13.079 L219.02,12.991 L218.803,12.901 L218.592,12.814 L218.38,12.728 L218.168,12.642 L217.955,12.557 L217.737,12.471 L217.523,12.387 L217.305,12.302 L217.092,12.22 L216.877,12.138 L216.658,12.055 L216.443,11.974 L216.228,11.894 L216.012,11.815 L215.792,11.734 L215.571,11.655 L215.356,11.577 L215.139,11.501 L214.922,11.424 L214.704,11.349 L214.482,11.273 L214.26,11.197 L214.042,11.123 L213.823,11.051 L213.6,10.977 L213.382,10.905 L213.162,10.834 L212.938,10.763 L212.718,10.693 L212.498,10.624 L212.273,10.555 L212.052,10.487 L211.831,10.42 L211.605,10.353 L211.38,10.286 L211.158,10.221 L210.936,10.157 L210.709,10.092 L210.487,10.029 L210.263,9.967 L210.036,9.904 L209.812,9.843 L209.588,9.782 L209.36,9.722 L209.132,9.662 L208.682,9.546 L208.453,9.488 L208.228,9.432 L208.001,9.376 L207.772,9.321 L207.542,9.266 L207.315,9.212 L207.088,9.159 L206.858,9.107 L206.63,9.055 L206.398,9.003 L206.171,8.953 L205.942,8.904 L205.707,8.854 L205.479,8.806 L205.252,8.759 L205.019,8.712 L204.787,8.665 L204.557,8.62 L204.323,8.575 L204.09,8.531 L203.86,8.488 L203.628,8.445 L203.394,8.403 L203.163,8.362 L202.931,8.321 L202.696,8.281 L202.461,8.242 L202.226,8.203 L201.994,8.166 L201.76,8.129 L201.526,8.093 L201.29,8.057 L201.054,8.022 L200.82,7.988 L200.583,7.955 L200.349,7.922 L200.111,7.89 L199.875,7.859 L199.641,7.829 L199.403,7.799 L199.165,7.77 L198.929,7.742 L198.69,7.714 L198.452,7.687 L198.215,7.661 L197.978,7.636 L197.739,7.611 L197.499,7.587 L197.262,7.564 L197.023,7.542 L196.783,7.52 L196.543,7.499 L196.304,7.479 L196.063,7.459 L195.823,7.441 L195.583,7.423 L195.343,7.406 L195.102,7.389 L194.86,7.374 L194.619,7.359 L194.378,7.344 L194.136,7.331 L193.895,7.318 L193.653,7.306 L193.41,7.295 L193.167,7.285 L192.925,7.275 L192.682,7.266 L192.439,7.258 L192.196,7.251 L191.952,7.244 L191.709,7.239 L191.464,7.234 L191.22,7.229 L190.732,7.223 L190.486,7.221 L190.241,7.22 L189.752,7.22 L189.752,7.22 Z" id="Fill-26"></path>
                <path d="M240.733,36.037 L240.733,36.037 C240.681,44.684 233.657,51.666 225.01,51.666 L192.071,51.666 L192.071,36.037 C187.926,36.037 183.95,37.683 181.019,40.614 C178.088,43.546 176.441,47.521 176.441,51.666 L192.071,51.666 L192.071,67.296 L176.441,67.296 L176.441,82.926 L192.071,82.926 L192.071,114.188 C192.071,118.333 190.425,122.308 187.494,125.239 C184.563,128.17 180.588,129.816 176.443,129.816 L176.441,129.816 L176.442,129.816 C180.587,129.816 184.562,128.17 187.494,125.238 C190.425,122.307 192.071,118.332 192.071,114.186 L176.441,114.186 L176.441,51.665 C176.441,47.52 178.088,43.545 181.019,40.614 C183.95,37.683 187.925,36.037 192.07,36.037 L240.733,36.037 Z M176.441,114.186 L176.441,129.816 L154.983,129.816 C146.336,129.816 139.312,122.834 139.26,114.187 L139.26,114.186 L176.441,114.186 Z M192.071,67.296 L224.258,67.296 L224.258,67.297 C224.206,75.944 217.182,82.926 208.535,82.926 L192.071,82.926 L192.071,67.296 L192.071,67.296 Z" id="Fill-27"></path>
            </g>
        </g>
    </g>
</svg>